<svg width="899" height="825" viewBox="0 0 899 825" fill="none" xmlns="http://www.w3.org/2000/svg">
<path fill-rule="evenodd" clip-rule="evenodd" d="M514.956 157.598L488.096 168.275L422.909 3.10024C419.205 3.42914 415.498 3.79445 411.785 4.19663C373.661 8.33095 337.057 16.1038 302.483 27.0096C307.917 31.5028 312.313 37.8115 315.574 46.0719L351.893 138.172C356.693 150.208 356.332 161.3 351.559 171.442C346.586 181.376 338.851 188.476 328.478 192.6C317.997 196.756 307.726 196.815 297.1 193.069C286.835 188.903 279.081 181.081 274.306 169.044L237.937 76.9459C234.636 68.5157 233.518 60.7719 234.422 53.6926C193.695 73.0164 156.954 96.9869 125.306 124.514L187.757 282.634L160.872 293.328L102.593 145.761C31.0591 217.783 -7.85068 309.741 2.4549 405.335C12.4338 497.772 66.4311 576.852 146.806 631.814C150.619 693.511 146.738 777.274 106.669 824.394C192.186 815.12 273.378 749.266 320.851 702.94C357.895 710.329 396.935 713.864 437.1 713.096L378.031 563.819L404.884 553.119L467.624 711.694C474.371 711.209 481.138 710.594 487.926 709.856C527.779 705.538 565.975 697.221 601.917 685.494C597.788 681.402 594.413 676.2 591.873 669.823L555.53 577.725C550.385 564.675 550.548 553.293 555.282 543.451C560.52 533.424 567.929 526.203 578.462 522.045C588.83 517.948 599.273 518.018 609.715 521.825C620.076 525.689 628.032 533.854 633.142 546.852L669.485 638.953C671.925 645.066 673.02 650.929 672.895 656.555C707.691 639.288 739.45 618.581 767.446 595.148L705.539 438.495L732.392 427.807L790.378 574.536C865.953 501.535 907.509 406.862 896.868 308.356C877.081 124.625 682.459 -6.98389 453.232 1.20998L514.956 157.598ZM302.928 162.111C306.049 170.075 311.641 172.275 319.281 169.269C327.216 166.115 329.526 160.762 326.406 152.825L286.496 51.7781C283.358 43.8416 277.996 41.4971 270.067 44.624C262.239 47.7195 259.965 53.1787 263.076 61.062L302.928 162.111ZM636.847 670.023C629.208 673.053 623.634 670.829 620.521 662.893L580.61 561.817C577.525 553.932 579.83 548.472 587.652 545.377C595.556 542.251 600.943 544.594 604.087 552.503L643.998 653.574C647.085 661.518 644.807 666.864 636.847 670.023ZM645.689 164.444C656.064 160.346 666.531 160.388 676.942 164.224C687.328 168.06 695.283 176.225 700.394 189.25L736.738 281.349C741.513 293.387 741.15 304.452 736.378 314.593C731.406 324.554 723.697 331.653 713.323 335.778C702.822 339.907 692.546 339.993 681.946 336.246C671.682 332.107 663.932 324.258 659.1 312.223L622.782 220.123C617.644 207.072 617.807 195.691 622.515 185.85C627.805 175.821 635.214 168.6 645.689 164.444ZM687.78 305.288C690.893 313.226 696.436 315.454 704.106 312.42C712.061 309.292 714.344 303.914 711.252 296.002L671.315 194.93C668.178 187.02 662.815 184.649 654.912 187.801C647.059 190.898 644.785 196.357 647.87 204.242L687.78 305.288ZM252.359 549.254L225.265 559.995L157.886 388.808L184.981 378.067L252.359 549.254ZM390.66 484.405L417.78 473.663L350.459 302.454L323.332 313.196L390.66 484.405ZM574.842 404.062L547.74 414.789L480.457 243.578L507.553 232.852L574.842 404.062Z" fill="#C53B27"/>
</svg>
